<mxfile host="65bd71144e">
    <diagram id="egWYQOJGLtSP5hndYrwH" name="ページ1">
        <mxGraphModel dx="2070" dy="587" grid="1" gridSize="10" guides="1" tooltips="1" connect="1" arrows="1" fold="1" page="1" pageScale="1" pageWidth="827" pageHeight="1169" math="0" shadow="0">
            <root>
                <mxCell id="0"/>
                <mxCell id="1" parent="0"/>
                <mxCell id="2" value="&lt;table style=&quot;table-layout:fixed;font-size:10pt;font-family:Arial;width:0px;border-collapse:collapse;border:none&quot; border=&quot;1&quot; dir=&quot;ltr&quot; cellpadding=&quot;0&quot; cellspacing=&quot;0&quot; xmlns=&quot;http://www.w3.org/1999/xhtml&quot;&gt;&lt;colgroup&gt;&lt;col width=&quot;100&quot;&gt;&lt;col width=&quot;100&quot;&gt;&lt;col width=&quot;77&quot;&gt;&lt;col width=&quot;42&quot;&gt;&lt;/colgroup&gt;&lt;tbody&gt;&lt;tr style=&quot;height:21px;&quot;&gt;&lt;td data-sheets-value=&quot;{&amp;quot;1&amp;quot;:2,&amp;quot;2&amp;quot;:&amp;quot;顧客&amp;quot;}&quot; style=&quot;overflow:hidden;padding:2px 3px 2px 3px;vertical-align:bottom;background-color:#cfe2f3;&quot;&gt;顧客&lt;/td&gt;&lt;td data-sheets-value=&quot;{&amp;quot;1&amp;quot;:2,&amp;quot;2&amp;quot;:&amp;quot;Customer&amp;quot;}&quot; style=&quot;overflow:hidden;padding:2px 3px 2px 3px;vertical-align:bottom;background-color:#cfe2f3;&quot;&gt;Customer&lt;/td&gt;&lt;td style=&quot;overflow:hidden;padding:2px 3px 2px 3px;vertical-align:bottom;background-color:#cfe2f3;&quot;&gt;&lt;/td&gt;&lt;td style=&quot;overflow:hidden;padding:2px 3px 2px 3px;vertical-align:bottom;background-color:#cfe2f3;&quot;&gt;&lt;/td&gt;&lt;/tr&gt;&lt;tr style=&quot;height:21px;&quot;&gt;&lt;td data-sheets-value=&quot;{&amp;quot;1&amp;quot;:2,&amp;quot;2&amp;quot;:&amp;quot;論理&amp;quot;}&quot; style=&quot;overflow:hidden;padding:2px 3px 2px 3px;vertical-align:bottom;background-color:#cfe2f3;&quot;&gt;論理&lt;/td&gt;&lt;td data-sheets-value=&quot;{&amp;quot;1&amp;quot;:2,&amp;quot;2&amp;quot;:&amp;quot;物理&amp;quot;}&quot; style=&quot;overflow:hidden;padding:2px 3px 2px 3px;vertical-align:bottom;background-color:#cfe2f3;&quot;&gt;物理&lt;/td&gt;&lt;td data-sheets-value=&quot;{&amp;quot;1&amp;quot;:2,&amp;quot;2&amp;quot;:&amp;quot;データ型&amp;quot;}&quot; style=&quot;overflow:hidden;padding:2px 3px 2px 3px;vertical-align:bottom;background-color:#cfe2f3;&quot;&gt;データ型&lt;/td&gt;&lt;td data-sheets-value=&quot;{&amp;quot;1&amp;quot;:2,&amp;quot;2&amp;quot;:&amp;quot;キー&amp;quot;}&quot; style=&quot;overflow:hidden;padding:2px 3px 2px 3px;vertical-align:bottom;background-color:#cfe2f3;&quot;&gt;キー&lt;/td&gt;&lt;/tr&gt;&lt;tr style=&quot;height:21px;&quot;&gt;&lt;td data-sheets-value=&quot;{&amp;quot;1&amp;quot;:2,&amp;quot;2&amp;quot;:&amp;quot;id&amp;quot;}&quot; style=&quot;overflow:hidden;padding:2px 3px 2px 3px;vertical-align:bottom;&quot;&gt;id&lt;/td&gt;&lt;td data-sheets-value=&quot;{&amp;quot;1&amp;quot;:2,&amp;quot;2&amp;quot;:&amp;quot;id&amp;quot;}&quot; style=&quot;overflow:hidden;padding:2px 3px 2px 3px;vertical-align:bottom;&quot;&gt;id&lt;/td&gt;&lt;td data-sheets-value=&quot;{&amp;quot;1&amp;quot;:2,&amp;quot;2&amp;quot;:&amp;quot;bigInt&amp;quot;}&quot; style=&quot;overflow:hidden;padding:2px 3px 2px 3px;vertical-align:bottom;&quot;&gt;bigInt&lt;/td&gt;&lt;td data-sheets-value=&quot;{&amp;quot;1&amp;quot;:2,&amp;quot;2&amp;quot;:&amp;quot;UK&amp;quot;}&quot; style=&quot;overflow:hidden;padding:2px 3px 2px 3px;vertical-align:bottom;&quot;&gt;UK&lt;/td&gt;&lt;/tr&gt;&lt;tr style=&quot;height:21px;&quot;&gt;&lt;td data-sheets-value=&quot;{&amp;quot;1&amp;quot;:2,&amp;quot;2&amp;quot;:&amp;quot;名前&amp;quot;}&quot; style=&quot;overflow:hidden;padding:2px 3px 2px 3px;vertical-align:bottom;&quot;&gt;名前&lt;/td&gt;&lt;td data-sheets-value=&quot;{&amp;quot;1&amp;quot;:2,&amp;quot;2&amp;quot;:&amp;quot;name&amp;quot;}&quot; style=&quot;overflow:hidden;padding:2px 3px 2px 3px;vertical-align:bottom;&quot;&gt;name&lt;/td&gt;&lt;td data-sheets-value=&quot;{&amp;quot;1&amp;quot;:2,&amp;quot;2&amp;quot;:&amp;quot;string&amp;quot;}&quot; style=&quot;overflow:hidden;padding:2px 3px 2px 3px;vertical-align:bottom;&quot;&gt;string&lt;/td&gt;&lt;td style=&quot;overflow:hidden;padding:2px 3px 2px 3px;vertical-align:bottom;&quot;&gt;&lt;/td&gt;&lt;/tr&gt;&lt;tr style=&quot;height:21px;&quot;&gt;&lt;td data-sheets-value=&quot;{&amp;quot;1&amp;quot;:2,&amp;quot;2&amp;quot;:&amp;quot;カナ&amp;quot;}&quot; style=&quot;overflow:hidden;padding:2px 3px 2px 3px;vertical-align:bottom;&quot;&gt;カナ&lt;/td&gt;&lt;td data-sheets-value=&quot;{&amp;quot;1&amp;quot;:2,&amp;quot;2&amp;quot;:&amp;quot;kana&amp;quot;}&quot; style=&quot;overflow:hidden;padding:2px 3px 2px 3px;vertical-align:bottom;&quot;&gt;kana&lt;/td&gt;&lt;td data-sheets-value=&quot;{&amp;quot;1&amp;quot;:2,&amp;quot;2&amp;quot;:&amp;quot;string&amp;quot;}&quot; style=&quot;overflow:hidden;padding:2px 3px 2px 3px;vertical-align:bottom;&quot;&gt;string&lt;/td&gt;&lt;td style=&quot;overflow:hidden;padding:2px 3px 2px 3px;vertical-align:bottom;&quot;&gt;&lt;/td&gt;&lt;/tr&gt;&lt;tr style=&quot;height:21px;&quot;&gt;&lt;td data-sheets-value=&quot;{&amp;quot;1&amp;quot;:2,&amp;quot;2&amp;quot;:&amp;quot;電話番号&amp;quot;}&quot; style=&quot;overflow:hidden;padding:2px 3px 2px 3px;vertical-align:bottom;&quot;&gt;電話番号&lt;/td&gt;&lt;td data-sheets-value=&quot;{&amp;quot;1&amp;quot;:2,&amp;quot;2&amp;quot;:&amp;quot;tel&amp;quot;}&quot; style=&quot;overflow:hidden;padding:2px 3px 2px 3px;vertical-align:bottom;&quot;&gt;tel&lt;/td&gt;&lt;td data-sheets-value=&quot;{&amp;quot;1&amp;quot;:2,&amp;quot;2&amp;quot;:&amp;quot;string&amp;quot;}&quot; style=&quot;overflow:hidden;padding:2px 3px 2px 3px;vertical-align:bottom;&quot;&gt;string&lt;/td&gt;&lt;td style=&quot;overflow:hidden;padding:2px 3px 2px 3px;vertical-align:bottom;&quot;&gt;&lt;/td&gt;&lt;/tr&gt;&lt;tr style=&quot;height:21px;&quot;&gt;&lt;td data-sheets-value=&quot;{&amp;quot;1&amp;quot;:2,&amp;quot;2&amp;quot;:&amp;quot;メールアドレス&amp;quot;}&quot; style=&quot;overflow:hidden;padding:2px 3px 2px 3px;vertical-align:bottom;&quot;&gt;メールアドレス&lt;/td&gt;&lt;td data-sheets-value=&quot;{&amp;quot;1&amp;quot;:2,&amp;quot;2&amp;quot;:&amp;quot;email&amp;quot;}&quot; style=&quot;overflow:hidden;padding:2px 3px 2px 3px;vertical-align:bottom;&quot;&gt;email&lt;/td&gt;&lt;td data-sheets-value=&quot;{&amp;quot;1&amp;quot;:2,&amp;quot;2&amp;quot;:&amp;quot;string&amp;quot;}&quot; style=&quot;overflow:hidden;padding:2px 3px 2px 3px;vertical-align:bottom;&quot;&gt;string&lt;/td&gt;&lt;td style=&quot;overflow:hidden;padding:2px 3px 2px 3px;vertical-align:bottom;&quot;&gt;&lt;/td&gt;&lt;/tr&gt;&lt;tr style=&quot;height:21px;&quot;&gt;&lt;td data-sheets-value=&quot;{&amp;quot;1&amp;quot;:2,&amp;quot;2&amp;quot;:&amp;quot;郵便番号&amp;quot;}&quot; style=&quot;overflow:hidden;padding:2px 3px 2px 3px;vertical-align:bottom;&quot;&gt;郵便番号&lt;/td&gt;&lt;td data-sheets-value=&quot;{&amp;quot;1&amp;quot;:2,&amp;quot;2&amp;quot;:&amp;quot;postcode&amp;quot;}&quot; style=&quot;overflow:hidden;padding:2px 3px 2px 3px;vertical-align:bottom;&quot;&gt;postcode&lt;/td&gt;&lt;td data-sheets-value=&quot;{&amp;quot;1&amp;quot;:2,&amp;quot;2&amp;quot;:&amp;quot;string&amp;quot;}&quot; style=&quot;overflow:hidden;padding:2px 3px 2px 3px;vertical-align:bottom;&quot;&gt;string&lt;/td&gt;&lt;td style=&quot;overflow:hidden;padding:2px 3px 2px 3px;vertical-align:bottom;&quot;&gt;&lt;/td&gt;&lt;/tr&gt;&lt;tr style=&quot;height:21px;&quot;&gt;&lt;td data-sheets-value=&quot;{&amp;quot;1&amp;quot;:2,&amp;quot;2&amp;quot;:&amp;quot;住所&amp;quot;}&quot; style=&quot;overflow:hidden;padding:2px 3px 2px 3px;vertical-align:bottom;&quot;&gt;住所&lt;/td&gt;&lt;td data-sheets-value=&quot;{&amp;quot;1&amp;quot;:2,&amp;quot;2&amp;quot;:&amp;quot;address&amp;quot;}&quot; style=&quot;overflow:hidden;padding:2px 3px 2px 3px;vertical-align:bottom;&quot;&gt;address&lt;/td&gt;&lt;td data-sheets-value=&quot;{&amp;quot;1&amp;quot;:2,&amp;quot;2&amp;quot;:&amp;quot;string&amp;quot;}&quot; style=&quot;overflow:hidden;padding:2px 3px 2px 3px;vertical-align:bottom;&quot;&gt;string&lt;/td&gt;&lt;td style=&quot;overflow:hidden;padding:2px 3px 2px 3px;vertical-align:bottom;&quot;&gt;&lt;/td&gt;&lt;/tr&gt;&lt;tr style=&quot;height:21px;&quot;&gt;&lt;td data-sheets-value=&quot;{&amp;quot;1&amp;quot;:2,&amp;quot;2&amp;quot;:&amp;quot;誕生日&amp;quot;}&quot; style=&quot;overflow:hidden;padding:2px 3px 2px 3px;vertical-align:bottom;&quot;&gt;誕生日&lt;/td&gt;&lt;td data-sheets-value=&quot;{&amp;quot;1&amp;quot;:2,&amp;quot;2&amp;quot;:&amp;quot;birthday&amp;quot;}&quot; style=&quot;overflow:hidden;padding:2px 3px 2px 3px;vertical-align:bottom;&quot;&gt;birthday&lt;/td&gt;&lt;td data-sheets-value=&quot;{&amp;quot;1&amp;quot;:2,&amp;quot;2&amp;quot;:&amp;quot;date&amp;quot;}&quot; style=&quot;overflow:hidden;padding:2px 3px 2px 3px;vertical-align:bottom;&quot;&gt;date&lt;/td&gt;&lt;td style=&quot;overflow:hidden;padding:2px 3px 2px 3px;vertical-align:bottom;&quot;&gt;&lt;/td&gt;&lt;/tr&gt;&lt;tr style=&quot;height:21px;&quot;&gt;&lt;td data-sheets-value=&quot;{&amp;quot;1&amp;quot;:2,&amp;quot;2&amp;quot;:&amp;quot;性別&amp;quot;}&quot; style=&quot;overflow:hidden;padding:2px 3px 2px 3px;vertical-align:bottom;&quot;&gt;性別&lt;/td&gt;&lt;td data-sheets-value=&quot;{&amp;quot;1&amp;quot;:2,&amp;quot;2&amp;quot;:&amp;quot;gender&amp;quot;}&quot; style=&quot;overflow:hidden;padding:2px 3px 2px 3px;vertical-align:bottom;&quot;&gt;gender&lt;/td&gt;&lt;td data-sheets-value=&quot;{&amp;quot;1&amp;quot;:2,&amp;quot;2&amp;quot;:&amp;quot;tinyInteger&amp;quot;}&quot; style=&quot;overflow:hidden;padding:2px 3px 2px 3px;vertical-align:bottom;&quot;&gt;tinyInteger&lt;/td&gt;&lt;td style=&quot;overflow:hidden;padding:2px 3px 2px 3px;vertical-align:bottom;&quot;&gt;&lt;/td&gt;&lt;/tr&gt;&lt;tr style=&quot;height:21px;&quot;&gt;&lt;td data-sheets-value=&quot;{&amp;quot;1&amp;quot;:2,&amp;quot;2&amp;quot;:&amp;quot;メモ&amp;quot;}&quot; style=&quot;overflow:hidden;padding:2px 3px 2px 3px;vertical-align:bottom;&quot;&gt;メモ&lt;/td&gt;&lt;td data-sheets-value=&quot;{&amp;quot;1&amp;quot;:2,&amp;quot;2&amp;quot;:&amp;quot;memo&amp;quot;}&quot; style=&quot;overflow:hidden;padding:2px 3px 2px 3px;vertical-align:bottom;&quot;&gt;memo&lt;/td&gt;&lt;td data-sheets-value=&quot;{&amp;quot;1&amp;quot;:2,&amp;quot;2&amp;quot;:&amp;quot;text&amp;quot;}&quot; style=&quot;overflow:hidden;padding:2px 3px 2px 3px;vertical-align:bottom;&quot;&gt;text&lt;/td&gt;&lt;td style=&quot;overflow:hidden;padding:2px 3px 2px 3px;vertical-align:bottom;&quot;&gt;&lt;/td&gt;&lt;/tr&gt;&lt;tr style=&quot;height:21px;&quot;&gt;&lt;td data-sheets-value=&quot;{&amp;quot;1&amp;quot;:2,&amp;quot;2&amp;quot;:&amp;quot;作成日時&amp;quot;}&quot; style=&quot;overflow:hidden;padding:2px 3px 2px 3px;vertical-align:bottom;&quot;&gt;作成日時&lt;/td&gt;&lt;td data-sheets-value=&quot;{&amp;quot;1&amp;quot;:2,&amp;quot;2&amp;quot;:&amp;quot;created_at&amp;quot;}&quot; style=&quot;overflow:hidden;padding:2px 3px 2px 3px;vertical-align:bottom;&quot;&gt;created_at&lt;/td&gt;&lt;td data-sheets-value=&quot;{&amp;quot;1&amp;quot;:2,&amp;quot;2&amp;quot;:&amp;quot;timestamp&amp;quot;}&quot; style=&quot;overflow:hidden;padding:2px 3px 2px 3px;vertical-align:bottom;&quot;&gt;timestamp&lt;/td&gt;&lt;td style=&quot;overflow:hidden;padding:2px 3px 2px 3px;vertical-align:bottom;&quot;&gt;&lt;/td&gt;&lt;/tr&gt;&lt;tr style=&quot;height:21px;&quot;&gt;&lt;td data-sheets-value=&quot;{&amp;quot;1&amp;quot;:2,&amp;quot;2&amp;quot;:&amp;quot;更新日時&amp;quot;}&quot; style=&quot;overflow:hidden;padding:2px 3px 2px 3px;vertical-align:bottom;&quot;&gt;更新日時&lt;/td&gt;&lt;td data-sheets-value=&quot;{&amp;quot;1&amp;quot;:2,&amp;quot;2&amp;quot;:&amp;quot;updated_at&amp;quot;}&quot; style=&quot;overflow:hidden;padding:2px 3px 2px 3px;vertical-align:bottom;&quot;&gt;updated_at&lt;/td&gt;&lt;td data-sheets-value=&quot;{&amp;quot;1&amp;quot;:2,&amp;quot;2&amp;quot;:&amp;quot;timestamp&amp;quot;}&quot; style=&quot;overflow:hidden;padding:2px 3px 2px 3px;vertical-align:bottom;&quot;&gt;timestamp&lt;/td&gt;&lt;td style=&quot;overflow:hidden;padding:2px 3px 2px 3px;vertical-align:bottom;&quot;&gt;&lt;/td&gt;&lt;/tr&gt;&lt;/tbody&gt;&lt;/table&gt;" style="text;whiteSpace=wrap;html=1;" vertex="1" parent="1">
                    <mxGeometry x="75" y="30" width="390" height="320" as="geometry"/>
                </mxCell>
                <mxCell id="3" value="&lt;table style=&quot;table-layout:fixed;font-size:10pt;font-family:Arial;width:0px;border-collapse:collapse;border:none&quot; border=&quot;1&quot; dir=&quot;ltr&quot; cellpadding=&quot;0&quot; cellspacing=&quot;0&quot; xmlns=&quot;http://www.w3.org/1999/xhtml&quot;&gt;&lt;colgroup&gt;&lt;col width=&quot;100&quot;&gt;&lt;col width=&quot;100&quot;&gt;&lt;col width=&quot;77&quot;&gt;&lt;col width=&quot;42&quot;&gt;&lt;/colgroup&gt;&lt;tbody&gt;&lt;tr style=&quot;height:21px;&quot;&gt;&lt;td data-sheets-value=&quot;{&amp;quot;1&amp;quot;:2,&amp;quot;2&amp;quot;:&amp;quot;使用ユーザー&amp;quot;}&quot; style=&quot;overflow:hidden;padding:2px 3px 2px 3px;vertical-align:bottom;background-color:#cfe2f3;&quot;&gt;使用ユーザー&lt;/td&gt;&lt;td data-sheets-value=&quot;{&amp;quot;1&amp;quot;:2,&amp;quot;2&amp;quot;:&amp;quot;User&amp;quot;}&quot; style=&quot;overflow:hidden;padding:2px 3px 2px 3px;vertical-align:bottom;background-color:#cfe2f3;&quot;&gt;User&lt;/td&gt;&lt;td style=&quot;overflow:hidden;padding:2px 3px 2px 3px;vertical-align:bottom;background-color:#cfe2f3;&quot;&gt;&lt;/td&gt;&lt;td style=&quot;overflow:hidden;padding:2px 3px 2px 3px;vertical-align:bottom;background-color:#cfe2f3;&quot;&gt;&lt;/td&gt;&lt;/tr&gt;&lt;tr style=&quot;height:21px;&quot;&gt;&lt;td data-sheets-value=&quot;{&amp;quot;1&amp;quot;:2,&amp;quot;2&amp;quot;:&amp;quot;論理&amp;quot;}&quot; style=&quot;overflow:hidden;padding:2px 3px 2px 3px;vertical-align:bottom;background-color:#cfe2f3;&quot;&gt;論理&lt;/td&gt;&lt;td data-sheets-value=&quot;{&amp;quot;1&amp;quot;:2,&amp;quot;2&amp;quot;:&amp;quot;物理&amp;quot;}&quot; style=&quot;overflow:hidden;padding:2px 3px 2px 3px;vertical-align:bottom;background-color:#cfe2f3;&quot;&gt;物理&lt;/td&gt;&lt;td data-sheets-value=&quot;{&amp;quot;1&amp;quot;:2,&amp;quot;2&amp;quot;:&amp;quot;データ型&amp;quot;}&quot; style=&quot;overflow:hidden;padding:2px 3px 2px 3px;vertical-align:bottom;background-color:#cfe2f3;&quot;&gt;データ型&lt;/td&gt;&lt;td data-sheets-value=&quot;{&amp;quot;1&amp;quot;:2,&amp;quot;2&amp;quot;:&amp;quot;キー&amp;quot;}&quot; style=&quot;overflow:hidden;padding:2px 3px 2px 3px;vertical-align:bottom;background-color:#cfe2f3;&quot;&gt;キー&lt;/td&gt;&lt;/tr&gt;&lt;tr style=&quot;height:21px;&quot;&gt;&lt;td data-sheets-value=&quot;{&amp;quot;1&amp;quot;:2,&amp;quot;2&amp;quot;:&amp;quot;id&amp;quot;}&quot; style=&quot;overflow:hidden;padding:2px 3px 2px 3px;vertical-align:bottom;&quot;&gt;id&lt;/td&gt;&lt;td data-sheets-value=&quot;{&amp;quot;1&amp;quot;:2,&amp;quot;2&amp;quot;:&amp;quot;id&amp;quot;}&quot; style=&quot;overflow:hidden;padding:2px 3px 2px 3px;vertical-align:bottom;&quot;&gt;id&lt;/td&gt;&lt;td data-sheets-value=&quot;{&amp;quot;1&amp;quot;:2,&amp;quot;2&amp;quot;:&amp;quot;bigInt&amp;quot;}&quot; style=&quot;overflow:hidden;padding:2px 3px 2px 3px;vertical-align:bottom;&quot;&gt;bigInt&lt;/td&gt;&lt;td data-sheets-value=&quot;{&amp;quot;1&amp;quot;:2,&amp;quot;2&amp;quot;:&amp;quot;UK&amp;quot;}&quot; style=&quot;overflow:hidden;padding:2px 3px 2px 3px;vertical-align:bottom;&quot;&gt;UK&lt;/td&gt;&lt;/tr&gt;&lt;tr style=&quot;height:21px;&quot;&gt;&lt;td data-sheets-value=&quot;{&amp;quot;1&amp;quot;:2,&amp;quot;2&amp;quot;:&amp;quot;名前&amp;quot;}&quot; style=&quot;overflow:hidden;padding:2px 3px 2px 3px;vertical-align:bottom;&quot;&gt;名前&lt;/td&gt;&lt;td data-sheets-value=&quot;{&amp;quot;1&amp;quot;:2,&amp;quot;2&amp;quot;:&amp;quot;name&amp;quot;}&quot; style=&quot;overflow:hidden;padding:2px 3px 2px 3px;vertical-align:bottom;&quot;&gt;name&lt;/td&gt;&lt;td data-sheets-value=&quot;{&amp;quot;1&amp;quot;:2,&amp;quot;2&amp;quot;:&amp;quot;string&amp;quot;}&quot; style=&quot;overflow:hidden;padding:2px 3px 2px 3px;vertical-align:bottom;&quot;&gt;string&lt;/td&gt;&lt;td style=&quot;overflow:hidden;padding:2px 3px 2px 3px;vertical-align:bottom;&quot;&gt;&lt;/td&gt;&lt;/tr&gt;&lt;tr style=&quot;height:21px;&quot;&gt;&lt;td data-sheets-value=&quot;{&amp;quot;1&amp;quot;:2,&amp;quot;2&amp;quot;:&amp;quot;メールアドレス&amp;quot;}&quot; style=&quot;overflow:hidden;padding:2px 3px 2px 3px;vertical-align:bottom;&quot;&gt;メールアドレス&lt;/td&gt;&lt;td data-sheets-value=&quot;{&amp;quot;1&amp;quot;:2,&amp;quot;2&amp;quot;:&amp;quot;email&amp;quot;}&quot; style=&quot;overflow:hidden;padding:2px 3px 2px 3px;vertical-align:bottom;&quot;&gt;email&lt;/td&gt;&lt;td data-sheets-value=&quot;{&amp;quot;1&amp;quot;:2,&amp;quot;2&amp;quot;:&amp;quot;string&amp;quot;}&quot; style=&quot;overflow:hidden;padding:2px 3px 2px 3px;vertical-align:bottom;&quot;&gt;string&lt;/td&gt;&lt;td style=&quot;overflow:hidden;padding:2px 3px 2px 3px;vertical-align:bottom;&quot;&gt;&lt;/td&gt;&lt;/tr&gt;&lt;tr style=&quot;height:21px;&quot;&gt;&lt;td data-sheets-value=&quot;{&amp;quot;1&amp;quot;:2,&amp;quot;2&amp;quot;:&amp;quot;パスワード&amp;quot;}&quot; style=&quot;overflow:hidden;padding:2px 3px 2px 3px;vertical-align:bottom;&quot;&gt;パスワード&lt;/td&gt;&lt;td data-sheets-value=&quot;{&amp;quot;1&amp;quot;:2,&amp;quot;2&amp;quot;:&amp;quot;password&amp;quot;}&quot; style=&quot;overflow:hidden;padding:2px 3px 2px 3px;vertical-align:bottom;&quot;&gt;password&lt;/td&gt;&lt;td data-sheets-value=&quot;{&amp;quot;1&amp;quot;:2,&amp;quot;2&amp;quot;:&amp;quot;string&amp;quot;}&quot; style=&quot;overflow:hidden;padding:2px 3px 2px 3px;vertical-align:bottom;&quot;&gt;string&lt;/td&gt;&lt;td style=&quot;overflow:hidden;padding:2px 3px 2px 3px;vertical-align:bottom;&quot;&gt;&lt;/td&gt;&lt;/tr&gt;&lt;tr style=&quot;height:21px;&quot;&gt;&lt;td data-sheets-value=&quot;{&amp;quot;1&amp;quot;:2,&amp;quot;2&amp;quot;:&amp;quot;作成日時&amp;quot;}&quot; style=&quot;overflow:hidden;padding:2px 3px 2px 3px;vertical-align:bottom;&quot;&gt;作成日時&lt;/td&gt;&lt;td data-sheets-value=&quot;{&amp;quot;1&amp;quot;:2,&amp;quot;2&amp;quot;:&amp;quot;created_at&amp;quot;}&quot; style=&quot;overflow:hidden;padding:2px 3px 2px 3px;vertical-align:bottom;&quot;&gt;created_at&lt;/td&gt;&lt;td data-sheets-value=&quot;{&amp;quot;1&amp;quot;:2,&amp;quot;2&amp;quot;:&amp;quot;timestamp&amp;quot;}&quot; style=&quot;overflow:hidden;padding:2px 3px 2px 3px;vertical-align:bottom;&quot;&gt;timestamp&lt;/td&gt;&lt;td style=&quot;overflow:hidden;padding:2px 3px 2px 3px;vertical-align:bottom;&quot;&gt;&lt;/td&gt;&lt;/tr&gt;&lt;tr style=&quot;height:21px;&quot;&gt;&lt;td data-sheets-value=&quot;{&amp;quot;1&amp;quot;:2,&amp;quot;2&amp;quot;:&amp;quot;更新日時&amp;quot;}&quot; style=&quot;overflow:hidden;padding:2px 3px 2px 3px;vertical-align:bottom;&quot;&gt;更新日時&lt;/td&gt;&lt;td data-sheets-value=&quot;{&amp;quot;1&amp;quot;:2,&amp;quot;2&amp;quot;:&amp;quot;updated_at&amp;quot;}&quot; style=&quot;overflow:hidden;padding:2px 3px 2px 3px;vertical-align:bottom;&quot;&gt;updated_at&lt;/td&gt;&lt;td data-sheets-value=&quot;{&amp;quot;1&amp;quot;:2,&amp;quot;2&amp;quot;:&amp;quot;timestamp&amp;quot;}&quot; style=&quot;overflow:hidden;padding:2px 3px 2px 3px;vertical-align:bottom;&quot;&gt;timestamp&lt;/td&gt;&lt;td style=&quot;overflow:hidden;padding:2px 3px 2px 3px;vertical-align:bottom;&quot;&gt;&lt;/td&gt;&lt;/tr&gt;&lt;/tbody&gt;&lt;/table&gt;" style="text;whiteSpace=wrap;html=1;" vertex="1" parent="1">
                    <mxGeometry x="500" y="30" width="350" height="190" as="geometry"/>
                </mxCell>
                <mxCell id="4" value="&lt;table style=&quot;table-layout:fixed;font-size:10pt;font-family:Arial;width:0px;border-collapse:collapse;border:none&quot; border=&quot;1&quot; dir=&quot;ltr&quot; cellpadding=&quot;0&quot; cellspacing=&quot;0&quot; xmlns=&quot;http://www.w3.org/1999/xhtml&quot;&gt;&lt;colgroup&gt;&lt;col width=&quot;100&quot;&gt;&lt;col width=&quot;100&quot;&gt;&lt;col width=&quot;100&quot;&gt;&lt;col width=&quot;42&quot;&gt;&lt;/colgroup&gt;&lt;tbody&gt;&lt;tr style=&quot;height:21px;&quot;&gt;&lt;td data-sheets-value=&quot;{&amp;quot;1&amp;quot;:2,&amp;quot;2&amp;quot;:&amp;quot;購買履歴&amp;quot;}&quot; style=&quot;overflow:hidden;padding:2px 3px 2px 3px;vertical-align:bottom;background-color:#cfe2f3;&quot;&gt;購買履歴&lt;/td&gt;&lt;td data-sheets-value=&quot;{&amp;quot;1&amp;quot;:2,&amp;quot;2&amp;quot;:&amp;quot;Purchase&amp;quot;}&quot; style=&quot;overflow:hidden;padding:2px 3px 2px 3px;vertical-align:bottom;background-color:#cfe2f3;&quot;&gt;Purchase&lt;/td&gt;&lt;td style=&quot;overflow:hidden;padding:2px 3px 2px 3px;vertical-align:bottom;background-color:#cfe2f3;&quot;&gt;&lt;/td&gt;&lt;td style=&quot;overflow:hidden;padding:2px 3px 2px 3px;vertical-align:bottom;background-color:#cfe2f3;&quot;&gt;&lt;/td&gt;&lt;/tr&gt;&lt;tr style=&quot;height:21px;&quot;&gt;&lt;td data-sheets-value=&quot;{&amp;quot;1&amp;quot;:2,&amp;quot;2&amp;quot;:&amp;quot;論理&amp;quot;}&quot; style=&quot;overflow:hidden;padding:2px 3px 2px 3px;vertical-align:bottom;background-color:#cfe2f3;&quot;&gt;論理&lt;/td&gt;&lt;td data-sheets-value=&quot;{&amp;quot;1&amp;quot;:2,&amp;quot;2&amp;quot;:&amp;quot;物理&amp;quot;}&quot; style=&quot;overflow:hidden;padding:2px 3px 2px 3px;vertical-align:bottom;background-color:#cfe2f3;&quot;&gt;物理&lt;/td&gt;&lt;td data-sheets-value=&quot;{&amp;quot;1&amp;quot;:2,&amp;quot;2&amp;quot;:&amp;quot;データ型&amp;quot;}&quot; style=&quot;overflow:hidden;padding:2px 3px 2px 3px;vertical-align:bottom;background-color:#cfe2f3;&quot;&gt;データ型&lt;/td&gt;&lt;td data-sheets-value=&quot;{&amp;quot;1&amp;quot;:2,&amp;quot;2&amp;quot;:&amp;quot;キー&amp;quot;}&quot; style=&quot;overflow:hidden;padding:2px 3px 2px 3px;vertical-align:bottom;background-color:#cfe2f3;&quot;&gt;キー&lt;/td&gt;&lt;/tr&gt;&lt;tr style=&quot;height:21px;&quot;&gt;&lt;td data-sheets-value=&quot;{&amp;quot;1&amp;quot;:2,&amp;quot;2&amp;quot;:&amp;quot;id&amp;quot;}&quot; style=&quot;overflow:hidden;padding:2px 3px 2px 3px;vertical-align:bottom;&quot;&gt;id&lt;/td&gt;&lt;td data-sheets-value=&quot;{&amp;quot;1&amp;quot;:2,&amp;quot;2&amp;quot;:&amp;quot;id&amp;quot;}&quot; style=&quot;overflow:hidden;padding:2px 3px 2px 3px;vertical-align:bottom;&quot;&gt;id&lt;/td&gt;&lt;td data-sheets-value=&quot;{&amp;quot;1&amp;quot;:2,&amp;quot;2&amp;quot;:&amp;quot;bigInt&amp;quot;}&quot; style=&quot;overflow:hidden;padding:2px 3px 2px 3px;vertical-align:bottom;&quot;&gt;bigInt&lt;/td&gt;&lt;td data-sheets-value=&quot;{&amp;quot;1&amp;quot;:2,&amp;quot;2&amp;quot;:&amp;quot;UK&amp;quot;}&quot; style=&quot;overflow:hidden;padding:2px 3px 2px 3px;vertical-align:bottom;&quot;&gt;UK&lt;/td&gt;&lt;/tr&gt;&lt;tr style=&quot;height:21px;&quot;&gt;&lt;td data-sheets-value=&quot;{&amp;quot;1&amp;quot;:2,&amp;quot;2&amp;quot;:&amp;quot;customer_id&amp;quot;}&quot; style=&quot;overflow:hidden;padding:2px 3px 2px 3px;vertical-align:bottom;&quot;&gt;customer_id&lt;/td&gt;&lt;td data-sheets-value=&quot;{&amp;quot;1&amp;quot;:2,&amp;quot;2&amp;quot;:&amp;quot;customer_id&amp;quot;}&quot; style=&quot;overflow:hidden;padding:2px 3px 2px 3px;vertical-align:bottom;&quot;&gt;customer_id&lt;/td&gt;&lt;td data-sheets-value=&quot;{&amp;quot;1&amp;quot;:2,&amp;quot;2&amp;quot;:&amp;quot;bigInt&amp;quot;}&quot; style=&quot;overflow:hidden;padding:2px 3px 2px 3px;vertical-align:bottom;&quot;&gt;bigInt&lt;/td&gt;&lt;td data-sheets-value=&quot;{&amp;quot;1&amp;quot;:2,&amp;quot;2&amp;quot;:&amp;quot;FK&amp;quot;}&quot; style=&quot;overflow:hidden;padding:2px 3px 2px 3px;vertical-align:bottom;&quot;&gt;FK&lt;/td&gt;&lt;/tr&gt;&lt;tr style=&quot;height:21px;&quot;&gt;&lt;td data-sheets-value=&quot;{&amp;quot;1&amp;quot;:2,&amp;quot;2&amp;quot;:&amp;quot;ステータス&amp;quot;}&quot; style=&quot;overflow:hidden;padding:2px 3px 2px 3px;vertical-align:bottom;&quot;&gt;ステータス&lt;/td&gt;&lt;td data-sheets-value=&quot;{&amp;quot;1&amp;quot;:2,&amp;quot;2&amp;quot;:&amp;quot;status&amp;quot;}&quot; style=&quot;overflow:hidden;padding:2px 3px 2px 3px;vertical-align:bottom;&quot;&gt;status&lt;/td&gt;&lt;td data-sheets-value=&quot;{&amp;quot;1&amp;quot;:2,&amp;quot;2&amp;quot;:&amp;quot;boolean&amp;quot;}&quot; style=&quot;overflow:hidden;padding:2px 3px 2px 3px;vertical-align:bottom;&quot;&gt;boolean&lt;/td&gt;&lt;td style=&quot;overflow:hidden;padding:2px 3px 2px 3px;vertical-align:bottom;&quot;&gt;&lt;/td&gt;&lt;/tr&gt;&lt;tr style=&quot;height:21px;&quot;&gt;&lt;td data-sheets-value=&quot;{&amp;quot;1&amp;quot;:2,&amp;quot;2&amp;quot;:&amp;quot;作成日時&amp;quot;}&quot; style=&quot;overflow:hidden;padding:2px 3px 2px 3px;vertical-align:bottom;&quot;&gt;作成日時&lt;/td&gt;&lt;td data-sheets-value=&quot;{&amp;quot;1&amp;quot;:2,&amp;quot;2&amp;quot;:&amp;quot;created_at&amp;quot;}&quot; style=&quot;overflow:hidden;padding:2px 3px 2px 3px;vertical-align:bottom;&quot;&gt;created_at&lt;/td&gt;&lt;td data-sheets-value=&quot;{&amp;quot;1&amp;quot;:2,&amp;quot;2&amp;quot;:&amp;quot;timestamp&amp;quot;}&quot; style=&quot;overflow:hidden;padding:2px 3px 2px 3px;vertical-align:bottom;&quot;&gt;timestamp&lt;/td&gt;&lt;td style=&quot;overflow:hidden;padding:2px 3px 2px 3px;vertical-align:bottom;&quot;&gt;&lt;/td&gt;&lt;/tr&gt;&lt;tr style=&quot;height:21px;&quot;&gt;&lt;td data-sheets-value=&quot;{&amp;quot;1&amp;quot;:2,&amp;quot;2&amp;quot;:&amp;quot;更新日時&amp;quot;}&quot; style=&quot;overflow:hidden;padding:2px 3px 2px 3px;vertical-align:bottom;&quot;&gt;更新日時&lt;/td&gt;&lt;td data-sheets-value=&quot;{&amp;quot;1&amp;quot;:2,&amp;quot;2&amp;quot;:&amp;quot;updated_at&amp;quot;}&quot; style=&quot;overflow:hidden;padding:2px 3px 2px 3px;vertical-align:bottom;&quot;&gt;updated_at&lt;/td&gt;&lt;td data-sheets-value=&quot;{&amp;quot;1&amp;quot;:2,&amp;quot;2&amp;quot;:&amp;quot;timestamp&amp;quot;}&quot; style=&quot;overflow:hidden;padding:2px 3px 2px 3px;vertical-align:bottom;&quot;&gt;timestamp&lt;/td&gt;&lt;td style=&quot;overflow:hidden;padding:2px 3px 2px 3px;vertical-align:bottom;&quot;&gt;&lt;/td&gt;&lt;/tr&gt;&lt;/tbody&gt;&lt;/table&gt;" style="text;whiteSpace=wrap;html=1;" vertex="1" parent="1">
                    <mxGeometry x="85" y="390" width="380" height="170" as="geometry"/>
                </mxCell>
                <mxCell id="5" value="&lt;table style=&quot;table-layout:fixed;font-size:10pt;font-family:Arial;width:0px;border-collapse:collapse;border:none&quot; border=&quot;1&quot; dir=&quot;ltr&quot; cellpadding=&quot;0&quot; cellspacing=&quot;0&quot; xmlns=&quot;http://www.w3.org/1999/xhtml&quot;&gt;&lt;colgroup&gt;&lt;col width=&quot;100&quot;&gt;&lt;col width=&quot;100&quot;&gt;&lt;col width=&quot;100&quot;&gt;&lt;col width=&quot;42&quot;&gt;&lt;/colgroup&gt;&lt;tbody&gt;&lt;tr style=&quot;height:21px;&quot;&gt;&lt;td data-sheets-value=&quot;{&amp;quot;1&amp;quot;:2,&amp;quot;2&amp;quot;:&amp;quot;RFMランク&amp;quot;}&quot; style=&quot;overflow:hidden;padding:2px 3px 2px 3px;vertical-align:bottom;background-color:#cfe2f3;&quot;&gt;RFMランク&lt;/td&gt;&lt;td data-sheets-value=&quot;{&amp;quot;1&amp;quot;:2,&amp;quot;2&amp;quot;:&amp;quot;ranks&amp;quot;}&quot; style=&quot;overflow:hidden;padding:2px 3px 2px 3px;vertical-align:bottom;background-color:#cfe2f3;&quot;&gt;ranks&lt;/td&gt;&lt;td style=&quot;overflow:hidden;padding:2px 3px 2px 3px;vertical-align:bottom;background-color:#cfe2f3;&quot;&gt;&lt;/td&gt;&lt;td style=&quot;overflow:hidden;padding:2px 3px 2px 3px;vertical-align:bottom;background-color:#cfe2f3;&quot;&gt;&lt;/td&gt;&lt;/tr&gt;&lt;tr style=&quot;height:21px;&quot;&gt;&lt;td data-sheets-value=&quot;{&amp;quot;1&amp;quot;:2,&amp;quot;2&amp;quot;:&amp;quot;論理&amp;quot;}&quot; style=&quot;overflow:hidden;padding:2px 3px 2px 3px;vertical-align:bottom;background-color:#cfe2f3;&quot;&gt;論理&lt;/td&gt;&lt;td data-sheets-value=&quot;{&amp;quot;1&amp;quot;:2,&amp;quot;2&amp;quot;:&amp;quot;物理&amp;quot;}&quot; style=&quot;overflow:hidden;padding:2px 3px 2px 3px;vertical-align:bottom;background-color:#cfe2f3;&quot;&gt;物理&lt;/td&gt;&lt;td data-sheets-value=&quot;{&amp;quot;1&amp;quot;:2,&amp;quot;2&amp;quot;:&amp;quot;データ型&amp;quot;}&quot; style=&quot;overflow:hidden;padding:2px 3px 2px 3px;vertical-align:bottom;background-color:#cfe2f3;&quot;&gt;データ型&lt;/td&gt;&lt;td data-sheets-value=&quot;{&amp;quot;1&amp;quot;:2,&amp;quot;2&amp;quot;:&amp;quot;キー&amp;quot;}&quot; style=&quot;overflow:hidden;padding:2px 3px 2px 3px;vertical-align:bottom;background-color:#cfe2f3;&quot;&gt;キー&lt;/td&gt;&lt;/tr&gt;&lt;tr style=&quot;height:21px;&quot;&gt;&lt;td data-sheets-value=&quot;{&amp;quot;1&amp;quot;:2,&amp;quot;2&amp;quot;:&amp;quot;ランク&amp;quot;}&quot; style=&quot;overflow:hidden;padding:2px 3px 2px 3px;vertical-align:bottom;&quot;&gt;ランク&lt;/td&gt;&lt;td data-sheets-value=&quot;{&amp;quot;1&amp;quot;:2,&amp;quot;2&amp;quot;:&amp;quot;rank&amp;quot;}&quot; style=&quot;overflow:hidden;padding:2px 3px 2px 3px;vertical-align:bottom;&quot;&gt;rank&lt;/td&gt;&lt;td data-sheets-value=&quot;{&amp;quot;1&amp;quot;:2,&amp;quot;2&amp;quot;:&amp;quot;integer&amp;quot;}&quot; style=&quot;overflow:hidden;padding:2px 3px 2px 3px;vertical-align:bottom;&quot;&gt;integer&lt;/td&gt;&lt;td style=&quot;overflow:hidden;padding:2px 3px 2px 3px;vertical-align:bottom;&quot;&gt;&lt;/td&gt;&lt;/tr&gt;&lt;/tbody&gt;&lt;/table&gt;" style="text;whiteSpace=wrap;html=1;" vertex="1" parent="1">
                    <mxGeometry x="80" y="620" width="380" height="90" as="geometry"/>
                </mxCell>
                <mxCell id="6" value="&lt;table style=&quot;table-layout:fixed;font-size:10pt;font-family:Arial;width:0px;border-collapse:collapse;border:none&quot; border=&quot;1&quot; dir=&quot;ltr&quot; cellpadding=&quot;0&quot; cellspacing=&quot;0&quot; xmlns=&quot;http://www.w3.org/1999/xhtml&quot;&gt;&lt;colgroup&gt;&lt;col width=&quot;126&quot;&gt;&lt;col width=&quot;127&quot;&gt;&lt;col width=&quot;100&quot;&gt;&lt;col width=&quot;42&quot;&gt;&lt;/colgroup&gt;&lt;tbody&gt;&lt;tr style=&quot;height:21px;&quot;&gt;&lt;td data-sheets-value=&quot;{&amp;quot;1&amp;quot;:2,&amp;quot;2&amp;quot;:&amp;quot;中間テーブル&amp;quot;}&quot; style=&quot;overflow:hidden;padding:2px 3px 2px 3px;vertical-align:bottom;background-color:#cfe2f3;&quot;&gt;中間テーブル&lt;/td&gt;&lt;td data-sheets-value=&quot;{&amp;quot;1&amp;quot;:2,&amp;quot;2&amp;quot;:&amp;quot;Item_Purchase&amp;quot;}&quot; style=&quot;overflow:hidden;padding:2px 3px 2px 3px;vertical-align:bottom;background-color:#cfe2f3;&quot;&gt;Item_Purchase&lt;/td&gt;&lt;td style=&quot;overflow:hidden;padding:2px 3px 2px 3px;vertical-align:bottom;background-color:#cfe2f3;&quot;&gt;&lt;/td&gt;&lt;td style=&quot;overflow:hidden;padding:2px 3px 2px 3px;vertical-align:bottom;background-color:#cfe2f3;&quot;&gt;&lt;/td&gt;&lt;/tr&gt;&lt;tr style=&quot;height:21px;&quot;&gt;&lt;td data-sheets-value=&quot;{&amp;quot;1&amp;quot;:2,&amp;quot;2&amp;quot;:&amp;quot;論理&amp;quot;}&quot; style=&quot;overflow:hidden;padding:2px 3px 2px 3px;vertical-align:bottom;background-color:#cfe2f3;&quot;&gt;論理&lt;/td&gt;&lt;td data-sheets-value=&quot;{&amp;quot;1&amp;quot;:2,&amp;quot;2&amp;quot;:&amp;quot;物理&amp;quot;}&quot; style=&quot;overflow:hidden;padding:2px 3px 2px 3px;vertical-align:bottom;background-color:#cfe2f3;&quot;&gt;物理&lt;/td&gt;&lt;td data-sheets-value=&quot;{&amp;quot;1&amp;quot;:2,&amp;quot;2&amp;quot;:&amp;quot;データ型&amp;quot;}&quot; style=&quot;overflow:hidden;padding:2px 3px 2px 3px;vertical-align:bottom;background-color:#cfe2f3;&quot;&gt;データ型&lt;/td&gt;&lt;td data-sheets-value=&quot;{&amp;quot;1&amp;quot;:2,&amp;quot;2&amp;quot;:&amp;quot;キー&amp;quot;}&quot; style=&quot;overflow:hidden;padding:2px 3px 2px 3px;vertical-align:bottom;background-color:#cfe2f3;&quot;&gt;キー&lt;/td&gt;&lt;/tr&gt;&lt;tr style=&quot;height:21px;&quot;&gt;&lt;td data-sheets-value=&quot;{&amp;quot;1&amp;quot;:2,&amp;quot;2&amp;quot;:&amp;quot;id&amp;quot;}&quot; style=&quot;overflow:hidden;padding:2px 3px 2px 3px;vertical-align:bottom;&quot;&gt;id&lt;/td&gt;&lt;td data-sheets-value=&quot;{&amp;quot;1&amp;quot;:2,&amp;quot;2&amp;quot;:&amp;quot;id&amp;quot;}&quot; style=&quot;overflow:hidden;padding:2px 3px 2px 3px;vertical-align:bottom;&quot;&gt;id&lt;/td&gt;&lt;td data-sheets-value=&quot;{&amp;quot;1&amp;quot;:2,&amp;quot;2&amp;quot;:&amp;quot;bigInt&amp;quot;}&quot; style=&quot;overflow:hidden;padding:2px 3px 2px 3px;vertical-align:bottom;&quot;&gt;bigInt&lt;/td&gt;&lt;td data-sheets-value=&quot;{&amp;quot;1&amp;quot;:2,&amp;quot;2&amp;quot;:&amp;quot;UK&amp;quot;}&quot; style=&quot;overflow:hidden;padding:2px 3px 2px 3px;vertical-align:bottom;&quot;&gt;UK&lt;/td&gt;&lt;/tr&gt;&lt;tr style=&quot;height:21px;&quot;&gt;&lt;td data-sheets-value=&quot;{&amp;quot;1&amp;quot;:2,&amp;quot;2&amp;quot;:&amp;quot;purchase_id&amp;quot;}&quot; style=&quot;overflow:hidden;padding:2px 3px 2px 3px;vertical-align:bottom;&quot;&gt;purchase_id&lt;/td&gt;&lt;td data-sheets-value=&quot;{&amp;quot;1&amp;quot;:2,&amp;quot;2&amp;quot;:&amp;quot;purchase_id&amp;quot;}&quot; style=&quot;overflow:hidden;padding:2px 3px 2px 3px;vertical-align:bottom;&quot;&gt;purchase_id&lt;/td&gt;&lt;td data-sheets-value=&quot;{&amp;quot;1&amp;quot;:2,&amp;quot;2&amp;quot;:&amp;quot;bigInt&amp;quot;}&quot; style=&quot;overflow:hidden;padding:2px 3px 2px 3px;vertical-align:bottom;&quot;&gt;bigInt&lt;/td&gt;&lt;td data-sheets-value=&quot;{&amp;quot;1&amp;quot;:2,&amp;quot;2&amp;quot;:&amp;quot;FK&amp;quot;}&quot; style=&quot;overflow:hidden;padding:2px 3px 2px 3px;vertical-align:bottom;&quot;&gt;FK&lt;/td&gt;&lt;/tr&gt;&lt;tr style=&quot;height:21px;&quot;&gt;&lt;td data-sheets-value=&quot;{&amp;quot;1&amp;quot;:2,&amp;quot;2&amp;quot;:&amp;quot;item_id&amp;quot;}&quot; style=&quot;overflow:hidden;padding:2px 3px 2px 3px;vertical-align:bottom;&quot;&gt;item_id&lt;/td&gt;&lt;td data-sheets-value=&quot;{&amp;quot;1&amp;quot;:2,&amp;quot;2&amp;quot;:&amp;quot;item_id&amp;quot;}&quot; style=&quot;overflow:hidden;padding:2px 3px 2px 3px;vertical-align:bottom;&quot;&gt;item_id&lt;/td&gt;&lt;td data-sheets-value=&quot;{&amp;quot;1&amp;quot;:2,&amp;quot;2&amp;quot;:&amp;quot;bigInt&amp;quot;}&quot; style=&quot;overflow:hidden;padding:2px 3px 2px 3px;vertical-align:bottom;&quot;&gt;bigInt&lt;/td&gt;&lt;td data-sheets-value=&quot;{&amp;quot;1&amp;quot;:2,&amp;quot;2&amp;quot;:&amp;quot;FK&amp;quot;}&quot; style=&quot;overflow:hidden;padding:2px 3px 2px 3px;vertical-align:bottom;&quot;&gt;FK&lt;/td&gt;&lt;/tr&gt;&lt;tr style=&quot;height:21px;&quot;&gt;&lt;td data-sheets-value=&quot;{&amp;quot;1&amp;quot;:2,&amp;quot;2&amp;quot;:&amp;quot;数量&amp;quot;}&quot; style=&quot;overflow:hidden;padding:2px 3px 2px 3px;vertical-align:bottom;&quot;&gt;数量&lt;/td&gt;&lt;td data-sheets-value=&quot;{&amp;quot;1&amp;quot;:2,&amp;quot;2&amp;quot;:&amp;quot;quantity&amp;quot;}&quot; style=&quot;overflow:hidden;padding:2px 3px 2px 3px;vertical-align:bottom;&quot;&gt;quantity&lt;/td&gt;&lt;td data-sheets-value=&quot;{&amp;quot;1&amp;quot;:2,&amp;quot;2&amp;quot;:&amp;quot;integer&amp;quot;}&quot; style=&quot;overflow:hidden;padding:2px 3px 2px 3px;vertical-align:bottom;&quot;&gt;integer&lt;/td&gt;&lt;td style=&quot;overflow:hidden;padding:2px 3px 2px 3px;vertical-align:bottom;&quot;&gt;&lt;/td&gt;&lt;/tr&gt;&lt;tr style=&quot;height:21px;&quot;&gt;&lt;td data-sheets-value=&quot;{&amp;quot;1&amp;quot;:2,&amp;quot;2&amp;quot;:&amp;quot;作成日時&amp;quot;}&quot; style=&quot;overflow:hidden;padding:2px 3px 2px 3px;vertical-align:bottom;&quot;&gt;作成日時&lt;/td&gt;&lt;td data-sheets-value=&quot;{&amp;quot;1&amp;quot;:2,&amp;quot;2&amp;quot;:&amp;quot;created_at&amp;quot;}&quot; style=&quot;overflow:hidden;padding:2px 3px 2px 3px;vertical-align:bottom;&quot;&gt;created_at&lt;/td&gt;&lt;td data-sheets-value=&quot;{&amp;quot;1&amp;quot;:2,&amp;quot;2&amp;quot;:&amp;quot;timestamp&amp;quot;}&quot; style=&quot;overflow:hidden;padding:2px 3px 2px 3px;vertical-align:bottom;&quot;&gt;timestamp&lt;/td&gt;&lt;td style=&quot;overflow:hidden;padding:2px 3px 2px 3px;vertical-align:bottom;&quot;&gt;&lt;/td&gt;&lt;/tr&gt;&lt;tr style=&quot;height:21px;&quot;&gt;&lt;td data-sheets-value=&quot;{&amp;quot;1&amp;quot;:2,&amp;quot;2&amp;quot;:&amp;quot;更新日時&amp;quot;}&quot; style=&quot;overflow:hidden;padding:2px 3px 2px 3px;vertical-align:bottom;&quot;&gt;更新日時&lt;/td&gt;&lt;td data-sheets-value=&quot;{&amp;quot;1&amp;quot;:2,&amp;quot;2&amp;quot;:&amp;quot;updated_at&amp;quot;}&quot; style=&quot;overflow:hidden;padding:2px 3px 2px 3px;vertical-align:bottom;&quot;&gt;updated_at&lt;/td&gt;&lt;td data-sheets-value=&quot;{&amp;quot;1&amp;quot;:2,&amp;quot;2&amp;quot;:&amp;quot;timestamp&amp;quot;}&quot; style=&quot;overflow:hidden;padding:2px 3px 2px 3px;vertical-align:bottom;&quot;&gt;timestamp&lt;/td&gt;&lt;td style=&quot;overflow:hidden;padding:2px 3px 2px 3px;vertical-align:bottom;&quot;&gt;&lt;/td&gt;&lt;/tr&gt;&lt;tr style=&quot;height:21px;&quot;&gt;&lt;td style=&quot;overflow:hidden;padding:2px 3px 2px 3px;vertical-align:bottom;&quot;&gt;&lt;/td&gt;&lt;td style=&quot;overflow:hidden;padding:2px 3px 2px 3px;vertical-align:bottom;&quot;&gt;&lt;/td&gt;&lt;td style=&quot;overflow:hidden;padding:2px 3px 2px 3px;vertical-align:bottom;&quot;&gt;&lt;/td&gt;&lt;td style=&quot;overflow:hidden;padding:2px 3px 2px 3px;vertical-align:bottom;&quot;&gt;&lt;/td&gt;&lt;/tr&gt;&lt;/tbody&gt;&lt;/table&gt;" style="text;whiteSpace=wrap;html=1;" vertex="1" parent="1">
                    <mxGeometry x="900" y="40" width="430" height="210" as="geometry"/>
                </mxCell>
                <mxCell id="7" value="&lt;table style=&quot;table-layout:fixed;font-size:10pt;font-family:Arial;width:0px;border-collapse:collapse;border:none&quot; border=&quot;1&quot; dir=&quot;ltr&quot; cellpadding=&quot;0&quot; cellspacing=&quot;0&quot; xmlns=&quot;http://www.w3.org/1999/xhtml&quot;&gt;&lt;colgroup&gt;&lt;col width=&quot;100&quot;&gt;&lt;col width=&quot;83&quot;&gt;&lt;col width=&quot;83&quot;&gt;&lt;col width=&quot;42&quot;&gt;&lt;/colgroup&gt;&lt;tbody&gt;&lt;tr style=&quot;height:21px;&quot;&gt;&lt;td data-sheets-value=&quot;{&amp;quot;1&amp;quot;:2,&amp;quot;2&amp;quot;:&amp;quot;商品&amp;quot;}&quot; style=&quot;overflow:hidden;padding:2px 3px 2px 3px;vertical-align:bottom;background-color:#cfe2f3;&quot;&gt;商品&lt;/td&gt;&lt;td data-sheets-value=&quot;{&amp;quot;1&amp;quot;:2,&amp;quot;2&amp;quot;:&amp;quot;Item&amp;quot;}&quot; style=&quot;overflow:hidden;padding:2px 3px 2px 3px;vertical-align:bottom;background-color:#cfe2f3;&quot;&gt;Item&lt;/td&gt;&lt;td style=&quot;overflow:hidden;padding:2px 3px 2px 3px;vertical-align:bottom;background-color:#cfe2f3;&quot;&gt;&lt;/td&gt;&lt;td style=&quot;overflow:hidden;padding:2px 3px 2px 3px;vertical-align:bottom;background-color:#cfe2f3;&quot;&gt;&lt;/td&gt;&lt;/tr&gt;&lt;tr style=&quot;height:21px;&quot;&gt;&lt;td data-sheets-value=&quot;{&amp;quot;1&amp;quot;:2,&amp;quot;2&amp;quot;:&amp;quot;論理&amp;quot;}&quot; style=&quot;overflow:hidden;padding:2px 3px 2px 3px;vertical-align:bottom;background-color:#cfe2f3;&quot;&gt;論理&lt;/td&gt;&lt;td data-sheets-value=&quot;{&amp;quot;1&amp;quot;:2,&amp;quot;2&amp;quot;:&amp;quot;物理&amp;quot;}&quot; style=&quot;overflow:hidden;padding:2px 3px 2px 3px;vertical-align:bottom;background-color:#cfe2f3;&quot;&gt;物理&lt;/td&gt;&lt;td data-sheets-value=&quot;{&amp;quot;1&amp;quot;:2,&amp;quot;2&amp;quot;:&amp;quot;データ型&amp;quot;}&quot; style=&quot;overflow:hidden;padding:2px 3px 2px 3px;vertical-align:bottom;background-color:#cfe2f3;&quot;&gt;データ型&lt;/td&gt;&lt;td data-sheets-value=&quot;{&amp;quot;1&amp;quot;:2,&amp;quot;2&amp;quot;:&amp;quot;キー&amp;quot;}&quot; style=&quot;overflow:hidden;padding:2px 3px 2px 3px;vertical-align:bottom;background-color:#cfe2f3;&quot;&gt;キー&lt;/td&gt;&lt;/tr&gt;&lt;tr style=&quot;height:21px;&quot;&gt;&lt;td data-sheets-value=&quot;{&amp;quot;1&amp;quot;:2,&amp;quot;2&amp;quot;:&amp;quot;id&amp;quot;}&quot; style=&quot;overflow:hidden;padding:2px 3px 2px 3px;vertical-align:bottom;&quot;&gt;id&lt;/td&gt;&lt;td data-sheets-value=&quot;{&amp;quot;1&amp;quot;:2,&amp;quot;2&amp;quot;:&amp;quot;id&amp;quot;}&quot; style=&quot;overflow:hidden;padding:2px 3px 2px 3px;vertical-align:bottom;&quot;&gt;id&lt;/td&gt;&lt;td data-sheets-value=&quot;{&amp;quot;1&amp;quot;:2,&amp;quot;2&amp;quot;:&amp;quot;bigInt&amp;quot;}&quot; style=&quot;overflow:hidden;padding:2px 3px 2px 3px;vertical-align:bottom;&quot;&gt;bigInt&lt;/td&gt;&lt;td data-sheets-value=&quot;{&amp;quot;1&amp;quot;:2,&amp;quot;2&amp;quot;:&amp;quot;UK&amp;quot;}&quot; style=&quot;overflow:hidden;padding:2px 3px 2px 3px;vertical-align:bottom;&quot;&gt;UK&lt;/td&gt;&lt;/tr&gt;&lt;tr style=&quot;height:21px;&quot;&gt;&lt;td data-sheets-value=&quot;{&amp;quot;1&amp;quot;:2,&amp;quot;2&amp;quot;:&amp;quot;名前&amp;quot;}&quot; style=&quot;overflow:hidden;padding:2px 3px 2px 3px;vertical-align:bottom;&quot;&gt;名前&lt;/td&gt;&lt;td data-sheets-value=&quot;{&amp;quot;1&amp;quot;:2,&amp;quot;2&amp;quot;:&amp;quot;name&amp;quot;}&quot; style=&quot;overflow:hidden;padding:2px 3px 2px 3px;vertical-align:bottom;&quot;&gt;name&lt;/td&gt;&lt;td data-sheets-value=&quot;{&amp;quot;1&amp;quot;:2,&amp;quot;2&amp;quot;:&amp;quot;string&amp;quot;}&quot; style=&quot;overflow:hidden;padding:2px 3px 2px 3px;vertical-align:bottom;&quot;&gt;string&lt;/td&gt;&lt;td style=&quot;overflow:hidden;padding:2px 3px 2px 3px;vertical-align:bottom;&quot;&gt;&lt;/td&gt;&lt;/tr&gt;&lt;tr style=&quot;height:21px;&quot;&gt;&lt;td data-sheets-value=&quot;{&amp;quot;1&amp;quot;:2,&amp;quot;2&amp;quot;:&amp;quot;メモ&amp;quot;}&quot; style=&quot;overflow:hidden;padding:2px 3px 2px 3px;vertical-align:bottom;&quot;&gt;メモ&lt;/td&gt;&lt;td data-sheets-value=&quot;{&amp;quot;1&amp;quot;:2,&amp;quot;2&amp;quot;:&amp;quot;memo&amp;quot;}&quot; style=&quot;overflow:hidden;padding:2px 3px 2px 3px;vertical-align:bottom;&quot;&gt;memo&lt;/td&gt;&lt;td data-sheets-value=&quot;{&amp;quot;1&amp;quot;:2,&amp;quot;2&amp;quot;:&amp;quot;string&amp;quot;}&quot; style=&quot;overflow:hidden;padding:2px 3px 2px 3px;vertical-align:bottom;&quot;&gt;string&lt;/td&gt;&lt;td style=&quot;overflow:hidden;padding:2px 3px 2px 3px;vertical-align:bottom;&quot;&gt;&lt;/td&gt;&lt;/tr&gt;&lt;tr style=&quot;height:21px;&quot;&gt;&lt;td data-sheets-value=&quot;{&amp;quot;1&amp;quot;:2,&amp;quot;2&amp;quot;:&amp;quot;単価&amp;quot;}&quot; style=&quot;overflow:hidden;padding:2px 3px 2px 3px;vertical-align:bottom;&quot;&gt;単価&lt;/td&gt;&lt;td data-sheets-value=&quot;{&amp;quot;1&amp;quot;:2,&amp;quot;2&amp;quot;:&amp;quot;price&amp;quot;}&quot; style=&quot;overflow:hidden;padding:2px 3px 2px 3px;vertical-align:bottom;&quot;&gt;price&lt;/td&gt;&lt;td data-sheets-value=&quot;{&amp;quot;1&amp;quot;:2,&amp;quot;2&amp;quot;:&amp;quot;integer&amp;quot;}&quot; style=&quot;overflow:hidden;padding:2px 3px 2px 3px;vertical-align:bottom;&quot;&gt;integer&lt;/td&gt;&lt;td style=&quot;overflow:hidden;padding:2px 3px 2px 3px;vertical-align:bottom;&quot;&gt;&lt;/td&gt;&lt;/tr&gt;&lt;tr style=&quot;height:21px;&quot;&gt;&lt;td data-sheets-value=&quot;{&amp;quot;1&amp;quot;:2,&amp;quot;2&amp;quot;:&amp;quot;販売/停止&amp;quot;}&quot; style=&quot;overflow:hidden;padding:2px 3px 2px 3px;vertical-align:bottom;&quot;&gt;販売/停止&lt;/td&gt;&lt;td data-sheets-value=&quot;{&amp;quot;1&amp;quot;:2,&amp;quot;2&amp;quot;:&amp;quot;is_selling&amp;quot;}&quot; style=&quot;overflow:hidden;padding:2px 3px 2px 3px;vertical-align:bottom;&quot;&gt;is_selling&lt;/td&gt;&lt;td data-sheets-value=&quot;{&amp;quot;1&amp;quot;:2,&amp;quot;2&amp;quot;:&amp;quot;boolean&amp;quot;}&quot; style=&quot;overflow:hidden;padding:2px 3px 2px 3px;vertical-align:bottom;&quot;&gt;boolean&lt;/td&gt;&lt;td style=&quot;overflow:hidden;padding:2px 3px 2px 3px;vertical-align:bottom;&quot;&gt;&lt;/td&gt;&lt;/tr&gt;&lt;tr style=&quot;height:21px;&quot;&gt;&lt;td data-sheets-value=&quot;{&amp;quot;1&amp;quot;:2,&amp;quot;2&amp;quot;:&amp;quot;作成日時&amp;quot;}&quot; style=&quot;overflow:hidden;padding:2px 3px 2px 3px;vertical-align:bottom;&quot;&gt;作成日時&lt;/td&gt;&lt;td data-sheets-value=&quot;{&amp;quot;1&amp;quot;:2,&amp;quot;2&amp;quot;:&amp;quot;created_at&amp;quot;}&quot; style=&quot;overflow:hidden;padding:2px 3px 2px 3px;vertical-align:bottom;&quot;&gt;created_at&lt;/td&gt;&lt;td data-sheets-value=&quot;{&amp;quot;1&amp;quot;:2,&amp;quot;2&amp;quot;:&amp;quot;timestamp&amp;quot;}&quot; style=&quot;overflow:hidden;padding:2px 3px 2px 3px;vertical-align:bottom;&quot;&gt;timestamp&lt;/td&gt;&lt;td style=&quot;overflow:hidden;padding:2px 3px 2px 3px;vertical-align:bottom;&quot;&gt;&lt;/td&gt;&lt;/tr&gt;&lt;tr style=&quot;height:21px;&quot;&gt;&lt;td data-sheets-value=&quot;{&amp;quot;1&amp;quot;:2,&amp;quot;2&amp;quot;:&amp;quot;更新日時&amp;quot;}&quot; style=&quot;overflow:hidden;padding:2px 3px 2px 3px;vertical-align:bottom;&quot;&gt;更新日時&lt;/td&gt;&lt;td data-sheets-value=&quot;{&amp;quot;1&amp;quot;:2,&amp;quot;2&amp;quot;:&amp;quot;updated_at&amp;quot;}&quot; style=&quot;overflow:hidden;padding:2px 3px 2px 3px;vertical-align:bottom;&quot;&gt;updated_at&lt;/td&gt;&lt;td data-sheets-value=&quot;{&amp;quot;1&amp;quot;:2,&amp;quot;2&amp;quot;:&amp;quot;timestamp&amp;quot;}&quot; style=&quot;overflow:hidden;padding:2px 3px 2px 3px;vertical-align:bottom;&quot;&gt;timestamp&lt;/td&gt;&lt;td style=&quot;overflow:hidden;padding:2px 3px 2px 3px;vertical-align:bottom;&quot;&gt;&lt;/td&gt;&lt;/tr&gt;&lt;/tbody&gt;&lt;/table&gt;" style="text;whiteSpace=wrap;html=1;" vertex="1" parent="1">
                    <mxGeometry x="900" y="350" width="340" height="210" as="geometry"/>
                </mxCell>
            </root>
        </mxGraphModel>
    </diagram>
</mxfile>
